<svg xmlns="http://www.w3.org/2000/svg" height="48" viewBox="0 -960 960 960" width="48"><path fill="white" d="M340-340v-280h280v280H340Zm60-60h160v-160H400v160Zm-60 260q-24.75 0-42.375-17.625T280-200v-60h-60q-24.75 0-42.375-17.625T160-320v-60h-40q-12.75 0-21.375-8.675-8.625-8.676-8.625-21.5 0-12.825 8.625-21.325T120-440h40v-80h-40q-12.75 0-21.375-8.675-8.625-8.676-8.625-21.5 0-12.825 8.625-21.325T120-580h40v-60q0-24.75 17.625-42.375T220-700h60v-60q0-24.75 17.625-42.375T340-820h60v-40q0-12.75 8.675-21.375 8.676-8.625 21.5-8.625 12.825 0 21.325 8.625T460-860v40h80v-40q0-12.75 8.675-21.375 8.676-8.625 21.5-8.625 12.825 0 21.325 8.625T600-860v40h60q24.75 0 42.375 17.625T720-760v60h60q24.75 0 42.375 17.625T840-640v60h40q12.75 0 21.375 8.675 8.625 8.676 8.625 21.5 0 12.825-8.625 21.325T880-520h-40v80h40q12.75 0 21.375 8.675 8.625 8.676 8.625 21.5 0 12.825-8.625 21.325T880-380h-40v60q0 24.75-17.625 42.375T780-260h-60v60q0 24.75-17.625 42.375T660-140h-60v40q0 12.75-8.675 21.375-8.676 8.625-21.5 8.625-12.825 0-21.325-8.625T540-100v-40h-80v40q0 12.75-8.675 21.375-8.676 8.625-21.5 8.625-12.825 0-21.325-8.625T400-100v-40h-60Z"/></svg>
